<mxfile host="app.diagrams.net" agent="Mozilla/5.0 (Windows NT 10.0; Win64; x64) AppleWebKit/537.36 (KHTML, like Gecko) Chrome/131.0.0.0 Safari/537.36" version="25.0.3">
  <diagram name="페이지-1" id="lecB4WbAZL4Z1q0Uk_pT">
    <mxGraphModel dx="698" dy="644" grid="1" gridSize="10" guides="1" tooltips="1" connect="1" arrows="1" fold="1" page="1" pageScale="1" pageWidth="827" pageHeight="1169" math="0" shadow="0">
      <root>
        <mxCell id="0" />
        <mxCell id="1" parent="0" />
        <mxCell id="gDDVhjxPCSIH9YcoAafa-3" value="교수" style="rounded=1;whiteSpace=wrap;html=1;" vertex="1" parent="1">
          <mxGeometry x="190" y="140" width="120" height="60" as="geometry" />
        </mxCell>
        <mxCell id="gDDVhjxPCSIH9YcoAafa-4" value="학생" style="rounded=1;whiteSpace=wrap;html=1;" vertex="1" parent="1">
          <mxGeometry x="430" y="140" width="120" height="60" as="geometry" />
        </mxCell>
        <mxCell id="gDDVhjxPCSIH9YcoAafa-5" value="" style="endArrow=classic;html=1;rounded=0;" edge="1" parent="1">
          <mxGeometry width="50" height="50" relative="1" as="geometry">
            <mxPoint x="249.5" y="210" as="sourcePoint" />
            <mxPoint x="249.5" y="300" as="targetPoint" />
          </mxGeometry>
        </mxCell>
        <mxCell id="gDDVhjxPCSIH9YcoAafa-6" value="학생성적확인&amp;nbsp;&lt;div&gt;프로그램&lt;/div&gt;" style="rounded=1;whiteSpace=wrap;html=1;" vertex="1" parent="1">
          <mxGeometry x="310" y="10" width="120" height="60" as="geometry" />
        </mxCell>
        <mxCell id="gDDVhjxPCSIH9YcoAafa-8" value="" style="endArrow=classic;html=1;rounded=0;entryX=1;entryY=0;entryDx=0;entryDy=0;" edge="1" parent="1" target="gDDVhjxPCSIH9YcoAafa-3">
          <mxGeometry width="50" height="50" relative="1" as="geometry">
            <mxPoint x="360" y="80" as="sourcePoint" />
            <mxPoint x="390" y="60" as="targetPoint" />
            <Array as="points" />
          </mxGeometry>
        </mxCell>
        <mxCell id="gDDVhjxPCSIH9YcoAafa-9" value="" style="endArrow=classic;html=1;rounded=0;" edge="1" parent="1">
          <mxGeometry width="50" height="50" relative="1" as="geometry">
            <mxPoint x="380" y="80" as="sourcePoint" />
            <mxPoint x="440" y="130" as="targetPoint" />
            <Array as="points">
              <mxPoint x="380" y="80" />
            </Array>
          </mxGeometry>
        </mxCell>
        <mxCell id="gDDVhjxPCSIH9YcoAafa-11" value="성적입력" style="swimlane;fontStyle=0;childLayout=stackLayout;horizontal=1;startSize=30;horizontalStack=0;resizeParent=1;resizeParentMax=0;resizeLast=0;collapsible=1;marginBottom=0;whiteSpace=wrap;html=1;" vertex="1" parent="1">
          <mxGeometry x="180" y="330" width="140" height="120" as="geometry" />
        </mxCell>
        <mxCell id="gDDVhjxPCSIH9YcoAafa-12" value="학번&amp;nbsp;" style="text;strokeColor=none;fillColor=none;align=left;verticalAlign=middle;spacingLeft=4;spacingRight=4;overflow=hidden;points=[[0,0.5],[1,0.5]];portConstraint=eastwest;rotatable=0;whiteSpace=wrap;html=1;" vertex="1" parent="gDDVhjxPCSIH9YcoAafa-11">
          <mxGeometry y="30" width="140" height="30" as="geometry" />
        </mxCell>
        <mxCell id="gDDVhjxPCSIH9YcoAafa-13" value="과목명" style="text;strokeColor=none;fillColor=none;align=left;verticalAlign=middle;spacingLeft=4;spacingRight=4;overflow=hidden;points=[[0,0.5],[1,0.5]];portConstraint=eastwest;rotatable=0;whiteSpace=wrap;html=1;" vertex="1" parent="gDDVhjxPCSIH9YcoAafa-11">
          <mxGeometry y="60" width="140" height="30" as="geometry" />
        </mxCell>
        <mxCell id="gDDVhjxPCSIH9YcoAafa-14" value="점수" style="text;strokeColor=none;fillColor=none;align=left;verticalAlign=middle;spacingLeft=4;spacingRight=4;overflow=hidden;points=[[0,0.5],[1,0.5]];portConstraint=eastwest;rotatable=0;whiteSpace=wrap;html=1;" vertex="1" parent="gDDVhjxPCSIH9YcoAafa-11">
          <mxGeometry y="90" width="140" height="30" as="geometry" />
        </mxCell>
        <mxCell id="gDDVhjxPCSIH9YcoAafa-16" value="" style="endArrow=classic;html=1;rounded=0;" edge="1" parent="1">
          <mxGeometry width="50" height="50" relative="1" as="geometry">
            <mxPoint x="489.5" y="220" as="sourcePoint" />
            <mxPoint x="489.5" y="310" as="targetPoint" />
          </mxGeometry>
        </mxCell>
        <mxCell id="gDDVhjxPCSIH9YcoAafa-17" value="성적 확인" style="swimlane;fontStyle=0;childLayout=stackLayout;horizontal=1;startSize=30;horizontalStack=0;resizeParent=1;resizeParentMax=0;resizeLast=0;collapsible=1;marginBottom=0;whiteSpace=wrap;html=1;" vertex="1" parent="1">
          <mxGeometry x="414" y="330" width="140" height="60" as="geometry" />
        </mxCell>
        <mxCell id="gDDVhjxPCSIH9YcoAafa-18" value="학번" style="text;strokeColor=none;fillColor=none;align=left;verticalAlign=middle;spacingLeft=4;spacingRight=4;overflow=hidden;points=[[0,0.5],[1,0.5]];portConstraint=eastwest;rotatable=0;whiteSpace=wrap;html=1;" vertex="1" parent="gDDVhjxPCSIH9YcoAafa-17">
          <mxGeometry y="30" width="140" height="30" as="geometry" />
        </mxCell>
        <mxCell id="gDDVhjxPCSIH9YcoAafa-22" value="" style="endArrow=classic;html=1;rounded=0;" edge="1" parent="1">
          <mxGeometry width="50" height="50" relative="1" as="geometry">
            <mxPoint x="249.5" y="480" as="sourcePoint" />
            <mxPoint x="249.5" y="560" as="targetPoint" />
          </mxGeometry>
        </mxCell>
        <mxCell id="gDDVhjxPCSIH9YcoAafa-25" value="파일 저장" style="rounded=1;whiteSpace=wrap;html=1;" vertex="1" parent="1">
          <mxGeometry x="190" y="570" width="120" height="60" as="geometry" />
        </mxCell>
      </root>
    </mxGraphModel>
  </diagram>
</mxfile>
